# xmcd
#
# Track frame offsets:
#	150
#	14422
#	28922
#	51787
#	71650
#	89810
#	111840
#	138562
#	151927
#	165895
#	187825
#
# Disc length: 2784 seconds
#
# Revision: 1
# Processed by: cddbd v1.5.1PL0 Copyright (c) Steve Scherf et al.
# Submitted via: audiograbber 1.83.01
#
DISCID=8f0ade0b
DTITLE=Dutch - Junkie
DYEAR=2000
DGENRE=Alternate Country Rock
TTITLE0=Running Through
TTITLE1=I Think I´d Like Myself
TTITLE2=Contessa
TTITLE3=Roll Away
TTITLE4=Falls Church
TTITLE5=Long Way Down
TTITLE6=Pale Blue
TTITLE7=What´cha Going To Do
TTITLE8=It Takes Three
TTITLE9=Now More Than Lately
TTITLE10=Misery Junkie
EXTD=
EXTT0=
EXTT1=
EXTT2=
EXTT3=
EXTT4=
EXTT5=
EXTT6=
EXTT7=
EXTT8=
EXTT9=
EXTT10=
PLAYORDER=
